<svg preserveAspectRatio="none" overflow="visible" style="display: block;" width="30" height="22" viewBox="0 0 30 22" fill="none" xmlns="http://www.w3.org/2000/svg">
<g id="Sidebar toggle button">
<path id="Vector" d="M27.306 0.0160002C28.0447 0.0917464 28.7291 0.438793 29.2268 0.989999C29.7244 1.5412 29.9999 2.25739 30 3V19L29.984 19.306C29.914 19.9926 29.6094 20.634 29.1216 21.1222C28.6338 21.6104 27.9925 21.9155 27.306 21.986L27 22H3L2.694 21.984C2.00741 21.914 1.36596 21.6094 0.877771 21.1216C0.389582 20.6338 0.0845161 19.9925 0.014 19.306L0 19V3C8.74296e-05 2.25739 0.275601 1.5412 0.773237 0.989999C1.27087 0.438793 1.95526 0.0917464 2.694 0.0160002L3 3.8743e-07H27L27.306 0.0160002ZM3 1.968C2.7263 1.968 2.4638 2.07673 2.27027 2.27027C2.07673 2.4638 1.968 2.7263 1.968 3V19C1.968 19.57 2.43 20.032 3 20.032H8V1.968H3ZM10 20.032H27C27.2737 20.032 27.5362 19.9233 27.7297 19.7297C27.9233 19.5362 28.032 19.2737 28.032 19V3C28.032 2.7263 27.9233 2.4638 27.7297 2.27027C27.5362 2.07673 27.2737 1.968 27 1.968H10V20.032Z" fill="#827E7E"/>
<g id="Mask group">
<mask id="mask0_0_26" style="mask-type:luminance" maskUnits="userSpaceOnUse" x="0" y="0" width="30" height="22">
<g id="Group">
<path id="Vector_2" d="M27.306 0.0160002C28.0447 0.0917464 28.7291 0.438793 29.2268 0.989999C29.7244 1.5412 29.9999 2.25739 30 3V19L29.984 19.306C29.914 19.9926 29.6094 20.634 29.1216 21.1222C28.6338 21.6104 27.9925 21.9155 27.306 21.986L27 22H3L2.694 21.984C2.00741 21.914 1.36596 21.6094 0.877771 21.1216C0.389582 20.6338 0.0845161 19.9925 0.014 19.306L0 19V3C8.74296e-05 2.25739 0.275601 1.5412 0.773237 0.989999C1.27087 0.438793 1.95526 0.0917464 2.694 0.0160002L3 3.8743e-07H27L27.306 0.0160002ZM3 1.968C2.7263 1.968 2.4638 2.07673 2.27027 2.27027C2.07673 2.4638 1.968 2.7263 1.968 3V19C1.968 19.57 2.43 20.032 3 20.032H8V1.968H3ZM10 20.032H27C27.2737 20.032 27.5362 19.9233 27.7297 19.7297C27.9233 19.5362 28.032 19.2737 28.032 19V3C28.032 2.7263 27.9233 2.4638 27.7297 2.27027C27.5362 2.07673 27.2737 1.968 27 1.968H10V20.032Z" fill="#827E7E"/>
</g>
</mask>
<g mask="url(#mask0_0_26)">
<path id="Vector_3" d="M27.306 0.0159965L27.558 -2.464L27.498 -2.472L27.434 -2.474L27.306 0.0159965ZM30 19L32.49 19.126L32.494 19.064V19H30ZM29.984 19.306L32.464 19.558L32.472 19.498L32.474 19.434L29.984 19.306ZM27.306 21.986L27.434 24.474L27.496 24.472L27.558 24.466L27.306 21.986ZM27 22V24.494H27.064L27.126 24.49L27 22ZM2.99999 22L2.87399 24.49L2.93599 24.494H2.99999V22ZM2.69399 21.984L2.44199 24.464L2.50199 24.472L2.56599 24.474L2.69399 21.984ZM0.0139902 19.306L-2.47401 19.434L-2.47201 19.496L-2.46601 19.558L0.0139902 19.306ZM-9.77516e-06 19H-2.49401V19.064L-2.49001 19.126L-9.77516e-06 19ZM2.69399 0.0159965L2.56599 -2.474L2.50399 -2.472L2.44199 -2.466L2.69399 0.0159965ZM2.99999 -3.33786e-06V-2.494H2.93599L2.87399 -2.49L2.99999 -3.33786e-06ZM27 -3.33786e-06L27.126 -2.49L27.064 -2.494H27V-3.33786e-06ZM7.99999 20.032V22.524H10.494V20.032H7.99999ZM7.99999 1.968H10.494V-0.524003H7.99999V1.968ZM9.99999 20.032H7.50599V22.524H9.99999V20.032ZM9.99999 1.968V-0.524003H7.50599V1.968H9.99999ZM27.306 0.0159965L27.054 2.496C27.1783 2.50934 27.2932 2.56821 27.3767 2.66127C27.4602 2.75433 27.5062 2.87499 27.506 3H32.494C32.4941 1.63943 31.9893 0.32723 31.0775 -0.682542C30.1656 -1.69231 28.9115 -2.32582 27.558 -2.464L27.306 0.0159965ZM30 3H27.506V19H32.494V3H30ZM30 19L27.51 18.874L27.494 19.18L29.984 19.306L32.474 19.434L32.49 19.126L30 19ZM29.984 19.306L27.504 19.054C27.4915 19.169 27.44 19.2764 27.3582 19.3582C27.2764 19.44 27.169 19.4915 27.054 19.504L27.306 21.984L27.558 24.466C28.8152 24.3366 29.9895 23.7763 30.8834 22.8828C31.7773 21.9893 32.3341 20.8152 32.464 19.558L29.984 19.306ZM27.306 21.986L27.18 19.494L26.874 19.51L27 22L27.126 24.49L27.434 24.474L27.306 21.986ZM27 22V19.506H2.99999V24.494H27V22ZM2.99999 22L3.12599 19.51L2.81999 19.494L2.69399 21.984L2.56599 24.474L2.87399 24.49L2.99999 22ZM2.69399 21.984L2.94599 19.504C2.83094 19.4915 2.72362 19.44 2.64179 19.3582C2.55996 19.2764 2.50852 19.169 2.49599 19.054L0.0159903 19.306L-2.46401 19.558C-2.33466 20.8152 -1.77627 21.9895 -0.88277 22.8834C0.0107314 23.7773 1.18482 24.3341 2.44199 24.464L2.69399 21.984ZM0.0139902 19.306L2.50599 19.18L2.48999 18.874L-9.77516e-06 19L-2.49001 19.126L-2.47401 19.434L0.0139902 19.306ZM-9.77516e-06 19H2.49399V3H-2.49401V19H-9.77516e-06ZM-9.77516e-06 3H2.49399C2.49399 2.74 2.69399 2.522 2.94599 2.496L2.69399 0.0159965L2.43999 -2.464C1.08717 -2.32539 -0.166175 -1.68997 -1.07758 -0.680667C-1.98898 0.328636 -2.49367 1.64009 -2.49401 3H-9.77516e-06ZM2.69399 0.0159965L2.81999 2.506L3.12599 2.49L2.99999 -3.33786e-06L2.87399 -2.49L2.56599 -2.474L2.69399 0.0159965ZM2.99999 -3.33786e-06V2.494H27V-2.494H2.99999V-3.33786e-06ZM27 -3.33786e-06L26.874 2.49L27.18 2.506L27.306 0.0159965L27.434 -2.474L27.126 -2.49L27 -3.33786e-06ZM2.99999 1.968V-0.524003C1.05399 -0.524003 -0.52401 1.054 -0.52401 3H4.45999C4.46025 3.19206 4.42262 3.38229 4.34924 3.55979C4.27586 3.73729 4.16818 3.89856 4.03237 4.03437C3.89656 4.17019 3.73528 4.27787 3.55778 4.35124C3.38029 4.42462 3.19006 4.46226 2.99799 4.462L2.99999 1.968ZM1.96799 3H-0.52401V19H4.45999V3H1.96799ZM1.96799 19H-0.52401C-0.52401 20.946 1.05399 22.524 2.99999 22.524V17.54C3.19206 17.5397 3.38229 17.5774 3.55978 17.6507C3.73728 17.7241 3.89856 17.8318 4.03437 17.9676C4.17018 18.1034 4.27786 18.2647 4.35124 18.4422C4.42462 18.6197 4.46225 18.8099 4.46199 19.002L1.96799 19ZM2.99999 20.032V22.524H7.99999V17.54H2.99999V20.032ZM7.99999 20.032H10.494V1.968H5.50599V20.032H7.99999ZM7.99999 1.968V-0.524003H2.99999V4.46H7.99999V1.968ZM9.99999 20.032V22.524H27V17.54H9.99999V20.032ZM27 20.032V22.524C28.946 22.524 30.524 20.946 30.524 19H25.54C25.5397 18.8079 25.5774 18.6177 25.6507 18.4402C25.7241 18.2627 25.8318 18.1014 25.9676 17.9656C26.1034 17.8298 26.2647 17.7221 26.4422 17.6487C26.6197 17.5754 26.8099 17.5377 27.002 17.538L27 20.032ZM28.032 19H30.524V3H25.54V19H28.032ZM28.032 3H30.524C30.524 1.054 28.946 -0.524003 27 -0.524003V4.46C26.8079 4.46026 26.6177 4.42262 26.4402 4.34924C26.2627 4.27587 26.1014 4.16819 25.9656 4.03237C25.8298 3.89656 25.7221 3.73529 25.6487 3.55779C25.5754 3.38029 25.5377 3.19006 25.538 2.998L28.032 3ZM27 1.968V-0.524003H9.99999V4.46H27V1.968ZM9.99999 1.968H7.50599V20.032H12.494V1.968H9.99999Z" fill="#827E7E"/>
</g>
</g>
</g>
</svg>
